<?xml version="1.0" encoding="UTF-8" standalone="no"?>
<!-- Created with Inkscape (http://www.inkscape.org/) -->

<svg
   width="107.28827mm"
   height="107.28827mm"
   viewBox="0 0 107.28827 107.28827"
   version="1.1"
   id="svg7653"
   inkscape:version="1.2.1 (9c6d41e, 2022-07-14)"
   sodipodi:docname="math facts logo.svg"
   xmlns:inkscape="http://www.inkscape.org/namespaces/inkscape"
   xmlns:sodipodi="http://sodipodi.sourceforge.net/DTD/sodipodi-0.dtd"
   xmlns="http://www.w3.org/2000/svg"
   xmlns:svg="http://www.w3.org/2000/svg">
  <sodipodi:namedview
     id="namedview7655"
     pagecolor="#ffffff"
     bordercolor="#000000"
     borderopacity="0.25"
     inkscape:showpageshadow="2"
     inkscape:pageopacity="0.0"
     inkscape:pagecheckerboard="0"
     inkscape:deskcolor="#d1d1d1"
     inkscape:document-units="mm"
     showgrid="false"
     inkscape:zoom="0.77981144"
     inkscape:cx="-544.36237"
     inkscape:cy="195.5601"
     inkscape:window-width="2560"
     inkscape:window-height="1314"
     inkscape:window-x="0"
     inkscape:window-y="27"
     inkscape:window-maximized="1"
     inkscape:current-layer="layer1" />
  <defs
     id="defs7650" />
  <g
     inkscape:label="Layer 1"
     inkscape:groupmode="layer"
     id="layer1"
     transform="translate(-202.29063,-31.667453)">
    <g
       id="g9104">
      <circle
         style="fill:#f72713;fill-opacity:1;stroke-width:0.264583"
         id="path1078"
         cx="255.93475"
         cy="85.311584"
         r="53.644135" />
      <path
         id="path1078-6"
         style="fill:#d90303;fill-opacity:1;stroke-width:0.264583"
         d="m 285.13017,58.386815 -57.50967,55.273105 27.78642,25.27496 a 53.644135,53.644135 0 0 0 0.21963,0.008 53.644135,53.644135 0 0 0 53.64427,-53.643756 53.644135,53.644135 0 0 0 -0.0765,-2.848405 z" />
      <path
         d="m 263.66524,73.246698 h 6.76406 v 6.764052 h -6.76406 z m 0,17.57778 h 6.76406 v 6.764054 h -6.76406 z m -8.6466,-8.03368 h 24.05726 v 5.209852 h -24.05726 z"
         id="path958"
         style="font-weight:bold;font-size:44.831px;font-family:'DejaVu Sans Mono';-inkscape-font-specification:'DejaVu Sans Mono, Bold';fill:#ce2727;stroke-width:3.73592" />
      <circle
         style="fill:#404851;fill-opacity:1;stroke-width:0.261459"
         id="path1139"
         cx="255.91928"
         cy="85.306679"
         r="40" />
      <ellipse
         style="fill:#f2f4f5;fill-opacity:1;stroke-width:0.265291"
         id="path1193"
         cx="255.91928"
         cy="85.306679"
         rx="32.21965"
         ry="12.96141" />
      <path
         id="path1139-6"
         style="fill:#22262a;fill-opacity:1;stroke-width:0.261459"
         d="M 255.95011,45.316723 V 125.31649 A 40,40 0 0 0 295.95025,85.316865 40,40 0 0 0 255.95011,45.316723 Z" />
      <path
         id="path1193-3"
         style="fill:#f4fbfe;fill-opacity:1;stroke-width:0.265291"
         d="M 255.95011,72.355383 V 98.278352 A 32.21965,12.96141 0 0 0 288.16985,85.316865 32.21965,12.96141 0 0 0 255.95011,72.355383 Z" />
      <path
         d="m 239.39979,80.148705 v 5.537326 h 5.53732 v 3.064847 h -5.53732 v 5.563081 h -3.05197 v -5.563081 h -5.56308 v -3.064847 h 5.56308 v -5.537326 z"
         id="path954"
         style="font-weight:bold;font-size:44.831px;font-family:'DejaVu Sans Mono';-inkscape-font-specification:'DejaVu Sans Mono, Bold';fill:#404851;fill-opacity:1;stroke-width:2.19777" />
      <path
         d="m 277.94093,82.556578 -4.70325,4.674754 4.70325,4.703266 -2.39438,2.365879 -4.70327,-4.674763 -4.6605,4.674763 -2.39438,-2.365879 4.70326,-4.703266 -4.70326,-4.674754 2.39438,-2.394392 4.6605,4.674763 4.70327,-4.674763 z"
         id="path960"
         style="font-weight:bold;font-size:44.831px;font-family:'DejaVu Sans Mono';-inkscape-font-specification:'DejaVu Sans Mono, Bold';fill:#22262a;fill-opacity:1;stroke-width:2.43239" />
    </g>
  </g>
</svg>
